<svg xmlns="http://www.w3.org/2000/svg" xmlns:svg="http://www.w3.org/2000/svg" xmlns:xlink="http://www.w3.org/1999/xlink" id="svg2" width="300" height="300" version="1.0"><title id="title110">channel_linked</title><defs id="defs4"><linearGradient id="linearGradient4101"><stop style="stop-color:#fff;stop-opacity:1" id="stop4103" offset="0"/><stop style="stop-color:#fff;stop-opacity:0" id="stop4105" offset="1"/></linearGradient><linearGradient id="linearGradient4091"><stop style="stop-color:#fff;stop-opacity:1" id="stop4093" offset="0"/><stop style="stop-color:#fff;stop-opacity:0" id="stop4095" offset="1"/></linearGradient><linearGradient id="linearGradient4074"><stop style="stop-color:#fff;stop-opacity:1" id="stop4076" offset="0"/><stop style="stop-color:#fff;stop-opacity:0" id="stop4078" offset="1"/></linearGradient><linearGradient id="linearGradient4006"><stop style="stop-color:red;stop-opacity:1" id="stop4008" offset="0"/><stop style="stop-color:red;stop-opacity:0" id="stop4010" offset="1"/></linearGradient><radialGradient id="radialGradient4012" cx="356.395" cy="128.26" r="58.006" fx="356.395" fy="128.26" gradientTransform="matrix(1,0,0,0.92426614,0,9.7135985)" gradientUnits="userSpaceOnUse" xlink:href="#linearGradient4006"/><radialGradient id="radialGradient4084" cx="157.987" cy="80.015" r="35.477" fx="157.987" fy="80.015" gradientTransform="matrix(0.68566507,0.03329876,-0.02331357,1.321193,38.085262,-29.701531)" gradientUnits="userSpaceOnUse" xlink:href="#linearGradient4074"/><linearGradient id="linearGradient4097" x1="8.299" x2="70.954" y1="134.855" y2="177.593" gradientTransform="matrix(0.71462332,0,0,0.77234612,16.44706,15.641815)" gradientUnits="userSpaceOnUse" xlink:href="#linearGradient4091"/><linearGradient id="linearGradient4101-8"><stop style="stop-color:#fff;stop-opacity:1" id="stop4103-2" offset="0"/><stop style="stop-color:#fff;stop-opacity:0" id="stop4105-7" offset="1"/></linearGradient><linearGradient id="linearGradient4149" x1="205.89" x2="207.741" y1="25.781" y2="76.429" gradientUnits="userSpaceOnUse" xlink:href="#linearGradient4101-8"/><linearGradient id="linearGradient4153-2"><stop style="stop-color:#fff;stop-opacity:1" id="stop4155-6" offset="0"/><stop style="stop-color:#fff;stop-opacity:0" id="stop4157-0" offset="1"/></linearGradient><linearGradient id="linearGradient4201" x1="120.078" x2="176.199" y1="123.677" y2="113.28" gradientUnits="userSpaceOnUse" xlink:href="#linearGradient4153-2"/><linearGradient id="linearGradient3019" x1="159.957" x2="188.849" y1="6.585" y2="74.004" gradientTransform="matrix(0.71462329,0,0,0.77234611,16.44706,15.641815)" gradientUnits="userSpaceOnUse" xlink:href="#linearGradient4101"/></defs><metadata id="metadata7"/><g id="layer2" style="display:inline"><g style="font-size:12px;font-style:normal;font-weight:400;fill:#000;fill-opacity:1;stroke:none;font-family:Bitstream Vera Sans" id="flowRoot2997" transform="matrix(1.3993386,0,0,1.2947563,-23.015006,-20.252338)"><path style="fill:#333;fill-opacity:1;fill-rule:evenodd;stroke:none" id="rect3148" d="m 27.959133,120.39662 l 0,121.95828 l 41.463081,-0.042 l 0.708672,-47.38346 l 47.619634,-0.32047 l 1.23132,47.74595 l 42.67533,0 l 0,-121.95828 l -133.698037,0 z m 43.10553,20.20168 l 46.321377,0 l 0,32.55921 l -46.629206,0 l 0.307829,-32.55921 z"/><rect style="opacity:.85;fill:url(#linearGradient4097);fill-opacity:1;fill-rule:evenodd;stroke:none" id="rect4089" width="137.038" height="123.437" x="26.846" y="120.408"/><path style="fill:#333;fill-opacity:1;fill-rule:evenodd;stroke:none" id="path3146" d="M 199.17012,89.41909 A 35.477177,52.489628 0 0 1 163.69295,141.90872 35.477177,52.489628 0 0 1 128.21577,89.41909 35.477177,52.489628 0 0 1 163.69295,36.929462 35.477177,52.489628 0 0 1 199.17012,89.41909 Z" transform="matrix(1.3690486,0,0,0.89190147,-129.71301,-14.301376)"/><path style="font-size:12px;font-style:normal;font-weight:400;opacity:.85;fill:url(#radialGradient4084);fill-opacity:1;fill-rule:evenodd;stroke:none;display:inline;font-family:Bitstream Vera Sans" id="path3146-9" d="M 199.17012,89.41909 A 35.477177,52.489628 0 0 1 163.69295,141.90872 35.477177,52.489628 0 0 1 128.21577,89.41909 35.477177,52.489628 0 0 1 163.69295,36.929462 35.477177,52.489628 0 0 1 199.17012,89.41909 Z" transform="matrix(1.3690486,0,0,0.89190149,-129.71348,-14.301352)"/><path style="fill:green;fill-opacity:1;fill-rule:evenodd;stroke:none" id="rect3174" d="m 159.75428,17.165293 l 0,39.971137 l -39.4958,0 l 0,30.490623 l 39.4958,0 l 0,41.649977 l 29.50837,0 l 0,-41.649977 l 39.49583,0 l 0,-30.490623 l -39.49583,0 l 0,-39.971137 l -29.50837,0 z"/><path style="opacity:.9;fill:url(#linearGradient3019);fill-opacity:1;fill-rule:evenodd;stroke:none" id="rect4099" d="m 159.60955,17.151406 l 0.19584,39.748301 l -39.35304,0 l -0.19584,30.484865 l 39.35304,0 l 0,-0.200216 l 6.49001,0 l 0,-70.03295 l -6.49001,0 z"/><rect style="font-size:12px;font-style:normal;font-weight:400;opacity:.9;fill:url(#linearGradient4149);fill-opacity:1;fill-rule:evenodd;stroke:none;display:inline;font-family:Bitstream Vera Sans" id="rect4099-7" width="39.124" height="30.146" x="189.407" y="57.143"/><rect style="font-size:12px;font-style:normal;font-weight:400;opacity:.9;fill:url(#linearGradient4201);fill-opacity:1;fill-rule:evenodd;stroke:none;display:inline;font-family:Bitstream Vera Sans" id="rect4151-4" width="6.494" height="41.676" x="159.629" y="87.608"/></g></g></svg>