<svg xmlns="http://www.w3.org/2000/svg" xmlns:svg="http://www.w3.org/2000/svg" xmlns:xlink="http://www.w3.org/1999/xlink" id="svg2" width="300" height="300" version="1.0"><title id="title110">channel_linked</title><defs id="defs4"><linearGradient id="linearGradient3787"><stop style="stop-color:#000;stop-opacity:1" id="stop3789" offset="0"/><stop style="stop-color:#000;stop-opacity:0" id="stop3792" offset="1"/></linearGradient><linearGradient id="linearGradient3739"><stop style="stop-color:#1a1a1a;stop-opacity:1" id="stop3741" offset="0"/><stop style="stop-color:#313131;stop-opacity:0" id="stop3743" offset="1"/></linearGradient><linearGradient id="linearGradient4001"><stop style="stop-color:#666;stop-opacity:1" id="stop4003" offset="0"/><stop style="stop-color:#666;stop-opacity:0" id="stop4005" offset="1"/></linearGradient><linearGradient id="linearGradient3971"><stop style="stop-color:#666;stop-opacity:1" id="stop3973" offset="0"/><stop style="stop-color:#666;stop-opacity:0" id="stop3975" offset="1"/></linearGradient><linearGradient id="linearGradient1094"><stop style="stop-color:#999;stop-opacity:1" id="stop1096" offset="0"/><stop style="stop-color:#999;stop-opacity:0" id="stop1098" offset="1"/></linearGradient><linearGradient id="linearGradient839-7"><stop id="stop841-4" offset="0" style="stop-color:#000;stop-opacity:1"/><stop style="stop-color:#404040;stop-opacity:.74901961" id="stop857-0" offset=".5"/><stop style="stop-color:gray;stop-opacity:.49803922" id="stop849-9" offset="1"/></linearGradient><radialGradient id="radialGradient846" cx="146.429" cy="216.786" r="74.286" fx="146.429" fy="216.786" gradientTransform="matrix(1,0,0,0.48687444,0,58.738289)" gradientUnits="userSpaceOnUse" xlink:href="#linearGradient839-7"/><radialGradient id="radialGradient1100" cx="197.925" cy="204.149" r="8.714" fx="197.925" fy="204.149" gradientTransform="matrix(1,0,0,1.0476191,0,-9.7214045)" gradientUnits="userSpaceOnUse" xlink:href="#linearGradient1094"/><linearGradient id="linearGradient3745" x1="-68.202" x2="31.55" y1="209.73" y2="219.503" gradientUnits="userSpaceOnUse" xlink:href="#linearGradient3739"/><linearGradient id="linearGradient2968" x1="-166.877" x2="-166.81" y1="247.665" y2="254.088" gradientTransform="matrix(1.5,0,0,1.4999999,95.951448,-382.04247)" gradientUnits="userSpaceOnUse" xlink:href="#linearGradient4001"/><linearGradient id="linearGradient2984" x1="-300.811" x2="-300.881" y1="83.488" y2="90.773" gradientTransform="matrix(1.4997813,0.00430103,0.0165549,1.499091,318.95889,-175.55243)" gradientUnits="userSpaceOnUse" xlink:href="#linearGradient3971"/><linearGradient id="linearGradient3786" x1="-131.151" x2="-121.603" y1="26.016" y2="54.458" gradientUnits="userSpaceOnUse" xlink:href="#linearGradient3971"/><linearGradient id="linearGradient4001-7"><stop style="stop-color:#666;stop-opacity:1" id="stop4003-1" offset="0"/><stop style="stop-color:#666;stop-opacity:0" id="stop4005-2" offset="1"/></linearGradient><linearGradient id="linearGradient3845" x1="-166.877" x2="-166.81" y1="247.665" y2="254.088" gradientTransform="matrix(1.5,0,0,1.4999999,95.951452,-382.04247)" gradientUnits="userSpaceOnUse" xlink:href="#linearGradient4001-7"/><radialGradient id="radialGradient3794" cx="145.607" cy="130.662" r="74.286" fx="145.607" fy="130.662" gradientTransform="matrix(-0.99920864,0.03436682,-0.00988005,-0.31975304,295.38761,183.28675)" gradientUnits="userSpaceOnUse" xlink:href="#linearGradient3787"/></defs><metadata id="metadata7"/><g id="layer2" style="display:inline"><path style="fill:#666;fill-opacity:1;fill-rule:evenodd;stroke:none;display:inline" id="rect141-4-4-8-2-4" d="m 211.54352,180.12419 c 0.81421,-0.56691 2.07984,-0.12986 2.85719,0.98657 l 24.00278,34.47378 c 0.29922,0.11606 0.52969,0.43216 0.53497,0.76833 l 41.21407,59.19334 c 0.77737,1.11647 0.74805,2.45511 -0.0662,3.02202 l -1.58348,1.10252 c -0.8142,0.56689 -2.10421,0.14685 -2.88156,-0.96961 l -2.00025,-2.87283 l -13.63038,-5.29011 l 0.20726,14.63613 l 2.00025,2.87281 c 0.77735,1.11647 0.74804,2.4551 -0.0662,3.02201 l -1.58349,1.10252 c -0.81421,0.56689 -2.10422,0.14686 -2.88158,-0.96961 l -41.21408,-59.19335 c -0.29935,-0.11619 -0.4884,-0.42807 -0.51169,-0.73493 L 191.91508,196.7666 c -0.77734,-1.11645 -0.72365,-2.47207 0.0905,-3.03897 l 1.58347,-1.10252 c 0.81422,-0.5669 2.07984,-0.12987 2.85718,0.98658 l 0.62799,0.90194 l 13.67806,5.30655 L 210.5206,185.201 l -0.65123,-0.93532 c -0.77736,-1.11645 -0.72368,-2.47206 0.0905,-3.03895 l 1.5835,-1.10254 z m -7.81724,23.94322 l 7.25666,10.42231 l -0.12022,-7.65368 l -7.13639,-2.76863 z m 13.44635,-9.31267 l 0.1214,7.60329 l 7.11197,2.78561 l -7.23338,-10.3889 z m 0.23168,14.61917 l 0.19175,14.25016 c 0.001,0.10576 -0.0156,0.20544 -0.0543,0.28576 l 1.48854,2.13789 l 13.6548,5.27315 l -0.23169,-14.61914 l -1.48852,-2.13791 c -0.0798,0.003 -0.19981,-0.0145 -0.28681,-0.0483 l -13.27381,-5.14161 z m 8.25473,26.19421 l 7.25665,10.42229 l -0.12022,-7.65367 l -7.13638,-2.76862 z m 13.44634,-9.31267 l 0.12139,7.60331 l 7.08874,2.7522 l -7.21015,-10.35551 z m 0.23167,14.61914 l 0.22273,13.93102 c 0.003,0.18674 -0.0901,0.34029 -0.20153,0.43789 l 0.32562,0.46765 l 13.67806,5.30657 l -0.23167,-14.61915 l -0.34887,-0.50108 c -0.13026,0.0706 -0.28209,0.0877 -0.45627,0.0201 l -12.98807,-5.04298 z m 6.9755,24.35696 l 7.25667,10.42231 l -0.12023,-7.65368 l -7.13638,-2.76863 z m 13.44635,-9.31266 l 0.097,7.62027 l 7.13637,2.76865 l -7.23339,-10.38892 z"/><path style="fill:#666;fill-opacity:1;fill-rule:evenodd;stroke:none;display:inline" id="rect141-4-4-8-2-4-9" d="m 212.48727,180.16249 c -0.81421,-0.56691 -2.07984,-0.12986 -2.85719,0.98657 l -24.00278,34.47378 c -0.29922,0.11606 -0.52969,0.43216 -0.53497,0.76833 l -41.21407,59.19334 c -0.77737,1.11647 -0.74805,2.45511 0.0662,3.02202 l 1.58348,1.10252 c 0.8142,0.5669 2.10421,0.14685 2.88156,-0.96961 l 2.00025,-2.87283 l 13.63038,-5.29011 l -0.20726,14.63614 l -2.00025,2.87281 c -0.77735,1.11647 -0.74804,2.4551 0.0662,3.02201 l 1.58349,1.10252 c 0.81421,0.56689 2.10422,0.14686 2.88158,-0.96961 l 41.21408,-59.19336 c 0.29935,-0.11619 0.4884,-0.42807 0.51169,-0.73493 l 24.02605,-34.50718 c 0.77734,-1.11645 0.72365,-2.47207 -0.0905,-3.03897 l -1.58347,-1.10252 c -0.81422,-0.5669 -2.07984,-0.12987 -2.85718,0.98658 l -0.62799,0.90194 l -13.67806,5.30655 l 0.23168,-14.61918 l 0.65123,-0.93532 c 0.77736,-1.11645 0.72368,-2.47206 -0.0905,-3.03895 l -1.5835,-1.10254 z m 7.81724,23.94322 l -7.25666,10.42231 l 0.12022,-7.65368 l 7.13639,-2.76863 z m -13.44635,-9.31267 l -0.1214,7.60329 l -7.11197,2.78561 l 7.23338,-10.3889 z m -0.23168,14.61917 l -0.19175,14.25016 c -0.001,0.10576 0.0156,0.20544 0.0543,0.28576 l -1.48854,2.13789 l -13.6548,5.27315 l 0.23169,-14.61914 l 1.48852,-2.13791 c 0.0798,0.003 0.19981,-0.0145 0.28681,-0.0483 l 13.27381,-5.14161 z m -8.25473,26.19421 l -7.25665,10.42229 l 0.12022,-7.65367 l 7.13638,-2.76862 z m -13.44634,-9.31267 l -0.12139,7.60331 l -7.08874,2.7522 l 7.21015,-10.35551 z m -0.23167,14.61914 l -0.22273,13.93102 c -0.003,0.18674 0.0901,0.34029 0.20153,0.43789 l -0.32562,0.46765 l -13.67806,5.30657 l 0.23167,-14.61915 l 0.34887,-0.50108 c 0.13026,0.0706 0.28209,0.0877 0.45627,0.0201 l 12.98807,-5.04298 z m -6.9755,24.35696 l -7.25667,10.42231 l 0.12023,-7.65368 l 7.13638,-2.76863 z m -13.44635,-9.31266 l -0.097,7.62027 l -7.13637,2.76865 l 7.23339,-10.38892 z"/><path style="fill:#666;fill-opacity:1;fill-rule:evenodd;stroke:none" id="path282" d="m 206.639,204.14938 a 8.7136927,9.1286306 0 1 1 -17.42738,0 a 8.7136927,9.1286306 0 1 1 17.42738,0 z" transform="matrix(2.7134489,0,0,2.4637635,-325.12933,-300.56421)"/><rect style="fill:#666;fill-opacity:1;fill-rule:evenodd;stroke:none" id="rect274" width="141.494" height="25.726" x="139.889" y="266.742" ry="1.885"/><path style="fill:url(#radialGradient1100);fill-opacity:1;fill-rule:evenodd;stroke:none;display:inline" id="path282-1" d="m 206.639,204.14938 a 8.7136927,9.1286306 0 1 1 -17.42738,0 a 8.7136927,9.1286306 0 1 1 17.42738,0 z" transform="matrix(2.0185413,0,0,1.7372691,-183.26434,-147.349)"/></g><g id="layer1" transform="translate(-22.223346,53.739535)" style="display:inline"><path id="path2965" d="M 94.190871,162.65561 A 93.153526,89.211617 0 0 1 1.037347,251.86723 93.153526,89.211617 0 0 1 -92.116182,162.65561" transform="matrix(0.75379136,-1.1101423,1.1591951,0.78709842,-52.584398,-51.87642)" style="fill:#999;fill-opacity:1;fill-rule:evenodd;stroke:none"/><path id="path2965-1" d="M 94.190871,162.65561 A 93.153526,89.211617 0 0 1 1.037347,251.86723 93.153526,89.211617 0 0 1 -92.116182,162.65561" transform="matrix(0.75379136,-1.1101423,1.1591951,0.78709842,-52.596462,-51.57921)" style="fill:url(#linearGradient3745);fill-opacity:1;fill-rule:evenodd;stroke:none;display:inline"/><path id="path25-1-1-1" d="M 220.71429,142.5 A 74.285713,28.224562 0 0 1 146.42857,170.72456 74.285713,28.224562 0 0 1 72.14286,142.5 74.285713,28.224562 0 0 1 146.42857,114.27544 74.285713,28.224562 0 0 1 220.71429,142.5 Z" transform="matrix(0.88558812,-1.537967,1.4212837,0.83457329,-176.80875,195.6776)" style="opacity:.75;fill:url(#radialGradient3794);fill-opacity:1;fill-rule:evenodd;stroke:none;display:inline"/><path id="path25-1-1" d="M 220.71429,142.5 A 74.285713,28.224562 0 0 1 146.42857,170.72456 74.285713,28.224562 0 0 1 72.14286,142.5 74.285713,28.224562 0 0 1 146.42857,114.27544 74.285713,28.224562 0 0 1 220.71429,142.5 Z" transform="matrix(0.96426536,-1.6582971,1.5475531,0.89987002,-228.45979,191.97371)" style="fill:gray;fill-opacity:1;fill-rule:evenodd;stroke:none"/><path id="path25-1-7-4-1" d="M 220.71429,142.5 A 74.285713,28.382521 0 0 1 146.42857,170.88252 74.285713,28.382521 0 0 1 72.14286,142.5 74.285713,28.382521 0 0 1 146.42857,114.11748 74.285713,28.382521 0 0 1 220.71429,142.5 Z" transform="matrix(0.86276373,-1.4837395,1.1904255,0.69220769,-163.67957,197.99767)" style="fill:#333;fill-opacity:1;fill-rule:evenodd;stroke:none;display:inline"/><path id="path25-1-7-4" d="M 220.71429,142.5 A 74.285713,28.382521 0 0 1 146.42857,170.88252 74.285713,28.382521 0 0 1 72.14286,142.5 74.285713,28.382521 0 0 1 146.42857,114.11748 74.285713,28.382521 0 0 1 220.71429,142.5 Z" transform="matrix(0.86276373,-1.4837395,1.1904255,0.69220769,-163.55154,197.76088)" style="fill:url(#radialGradient846);fill-opacity:1;fill-rule:evenodd;stroke:none"/><rect style="fill:#b3b3b3;fill-opacity:1;fill-rule:evenodd;stroke:none" id="rect71" width="115.035" height="9.563" x="-183.436" y="38.956" ry="2.93" transform="matrix(-0.32190147,-0.94677318,0.97984847,-0.19974229,0,0)"/><rect style="fill:#ccc;fill-opacity:1;fill-rule:evenodd;stroke:none" id="rect71-4" width="119.774" height="7.723" x="-176.054" y="-47.17" ry="2.366" transform="matrix(-0.9693926,0.24551575,-0.30635416,-0.95191761,0,0)"/><rect style="fill:url(#linearGradient2984);fill-opacity:1;fill-rule:evenodd;stroke:none;display:inline" id="rect71-4-2" width="112.114" height="7.392" x="-177.205" y="-47.525" ry="2.265" transform="matrix(-0.96868551,0.24829094,-0.29584244,-0.95523675,0,0)"/><rect style="fill:#999;fill-opacity:1;fill-rule:evenodd;stroke:none" id="rect47" width="52.593" height="11.826" x="-24.16" y="73.798" ry="1.288" transform="matrix(0.50267466,-0.86447567,0.86447567,0.50267466,0,0)"/><path style="fill:#999;fill-opacity:1;fill-rule:evenodd;stroke:none" id="path45-7" d="m 154.35685,50.829876 a 18.049793,4.7717843 0 0 1 -18.0498,4.771784 18.049793,4.7717843 0 0 1 -18.04979,-4.771784 18.049793,4.7717843 0 0 1 18.04979,-4.771784 18.049793,4.7717843 0 0 1 18.0498,4.771784 z" transform="matrix(0.73234495,-1.2594516,1.2967135,0.75401198,-91.717594,173.91409)"/><path style="fill:#ccc;fill-opacity:1;fill-rule:evenodd;stroke:none" id="path45" d="m 154.35685,50.829876 a 18.049793,4.7717843 0 0 1 -18.0498,4.771784 18.049793,4.7717843 0 0 1 -18.04979,-4.771784 18.049793,4.7717843 0 0 1 18.04979,-4.771784 18.049793,4.7717843 0 0 1 18.0498,4.771784 z" transform="matrix(0.73234495,-1.2594516,1.2967135,0.75401198,-100.05745,169.06464)"/><rect style="fill:#ccc;fill-opacity:1;fill-rule:evenodd;stroke:none;display:inline" id="rect71-4-8" width="96.28" height="6.208" x="-184.26" y="-6.308" ry="1.902" transform="matrix(-0.90887982,-0.41705811,0.3587208,-0.9334449,0,0)"/><rect style="fill:url(#linearGradient3786);fill-opacity:1;fill-rule:evenodd;stroke:none;display:inline" id="rect71-1" width="115.035" height="9.563" x="-183.81" y="38.908" ry="2.93" transform="matrix(-0.32190147,-0.94677317,0.97984847,-0.19974229,0,0)"/><rect style="fill:url(#linearGradient2968);fill-opacity:1;fill-rule:evenodd;stroke:none;display:inline" id="rect71-4-8-2" width="96.28" height="6.208" x="-184.007" y="-6.627" ry="1.902" transform="matrix(-0.90887982,-0.41705812,0.35872081,-0.9334449,0,0)"/><rect style="fill:url(#linearGradient3845);fill-opacity:1;fill-rule:evenodd;stroke:none;display:inline" id="rect71-4-8-2-6" width="96.28" height="6.208" x="-228.761" y="3.63" ry="1.902" transform="matrix(-0.90887982,-0.41705812,0.35872081,-0.9334449,0,0)"/></g></svg>