<svg xmlns="http://www.w3.org/2000/svg" xmlns:svg="http://www.w3.org/2000/svg" xmlns:xlink="http://www.w3.org/1999/xlink" id="svg2" width="400" height="400" version="1.1"><metadata id="metadata110"/><defs id="defs4"><linearGradient id="linearGradient3772"><stop id="stop3774" offset="0" style="stop-color:#fff;stop-opacity:1"/><stop id="stop3776" offset="1" style="stop-color:#fff;stop-opacity:0"/></linearGradient><linearGradient id="linearGradient3702"><stop id="stop3704" offset="0" style="stop-color:#fff;stop-opacity:1"/><stop id="stop3706" offset="1" style="stop-color:#fff;stop-opacity:0"/></linearGradient><linearGradient id="linearGradient3693"><stop id="stop3695" offset="0" style="stop-color:#fff;stop-opacity:1"/><stop id="stop3697" offset="1" style="stop-color:#fff;stop-opacity:0"/></linearGradient><linearGradient id="linearGradient3685"><stop id="stop3687" offset="0" style="stop-color:#fff;stop-opacity:1"/><stop id="stop3689" offset="1" style="stop-color:#fff;stop-opacity:0"/></linearGradient><linearGradient id="linearGradient3677"><stop id="stop3679" offset="0" style="stop-color:#000;stop-opacity:1"/><stop id="stop3681" offset="1" style="stop-color:#000;stop-opacity:0"/></linearGradient><linearGradient id="linearGradient3669"><stop id="stop3671" offset="0" style="stop-color:#000;stop-opacity:1"/><stop id="stop3673" offset="1" style="stop-color:#000;stop-opacity:0"/></linearGradient><linearGradient id="linearGradient3842"><stop id="stop3844" offset="0" style="stop-color:#a80;stop-opacity:1"/><stop id="stop3846" offset="1" style="stop-color:#fc0;stop-opacity:0"/></linearGradient><linearGradient id="linearGradient3788"><stop id="stop3790" offset="0" style="stop-color:#fea;stop-opacity:1"/><stop id="stop3792" offset="1" style="stop-color:#fea;stop-opacity:0"/></linearGradient><radialGradient id="radialGradient3794" cx="317.551" cy="344.607" r="257.143" fx="317.551" fy="344.607" gradientTransform="matrix(1,0,0,1.0111111,0,-6.042129)" gradientUnits="userSpaceOnUse" xlink:href="#linearGradient3788"/><radialGradient id="radialGradient3848" cx="608.163" cy="685.832" r="257.143" fx="608.163" fy="685.832" gradientTransform="matrix(1,0,0,1.0111111,0,-6.042129)" gradientUnits="userSpaceOnUse" xlink:href="#linearGradient3842"/><radialGradient id="radialGradient3675" cx="338.571" cy="162.362" r="58.571" fx="338.571" fy="162.362" gradientTransform="matrix(1,0,0,1.3414633,0,-55.440733)" gradientUnits="userSpaceOnUse" xlink:href="#linearGradient3669"/><radialGradient id="radialGradient3683" cx="338.571" cy="162.362" r="58.571" fx="338.571" fy="162.362" gradientTransform="matrix(1,0,0,1.3414633,0,-55.440733)" gradientUnits="userSpaceOnUse" xlink:href="#linearGradient3677"/><radialGradient id="radialGradient3691" cx="314.286" cy="127.219" r="58.571" fx="314.286" fy="127.219" gradientTransform="matrix(1,0,0,1.3414633,0,-55.440733)" gradientUnits="userSpaceOnUse" xlink:href="#linearGradient3685"/><radialGradient id="radialGradient3699" cx="333.023" cy="127.219" r="58.571" fx="333.023" fy="127.219" gradientTransform="matrix(1,0,0,1.3414633,0,-55.440733)" gradientUnits="userSpaceOnUse" xlink:href="#linearGradient3693"/><radialGradient id="radialGradient3708" cx="91.211" cy="129.031" r="53.178" fx="91.211" fy="129.031" gradientTransform="matrix(2.6524635,-0.03482834,0.03898838,2.9692836,-176.25361,-341.59711)" gradientUnits="userSpaceOnUse" xlink:href="#linearGradient3702"/><linearGradient id="linearGradient3702-4"><stop id="stop3704-0" offset="0" style="stop-color:#fff;stop-opacity:1"/><stop id="stop3706-9" offset="1" style="stop-color:#fff;stop-opacity:0"/></linearGradient><radialGradient id="radialGradient3727" cx="94.768" cy="120.227" r="53.178" fx="94.768" fy="120.227" gradientTransform="matrix(-2.6524635,-0.03482834,-0.03898838,2.9692836,975.2843,-337.5565)" gradientUnits="userSpaceOnUse" xlink:href="#linearGradient3702-4"/><radialGradient id="radialGradient3778" cx="63.135" cy="117.137" r="20.708" fx="63.135" fy="117.137" gradientTransform="matrix(0.97201783,-0.07410325,0.12651484,1.3906244,-13.052916,-41.078056)" gradientUnits="userSpaceOnUse" xlink:href="#linearGradient3772"/><linearGradient id="linearGradient3772-2"><stop id="stop3774-4" offset="0" style="stop-color:#fff;stop-opacity:1"/><stop id="stop3776-5" offset="1" style="stop-color:#fff;stop-opacity:0"/></linearGradient><radialGradient id="radialGradient3797" cx="63.135" cy="117.137" r="20.708" fx="63.135" fy="117.137" gradientTransform="matrix(0.97201783,-0.07410325,0.12651484,1.3906244,-13.052916,-41.078056)" gradientUnits="userSpaceOnUse" xlink:href="#linearGradient3772-2"/><linearGradient id="linearGradient3772-7"><stop id="stop3774-1" offset="0" style="stop-color:#fff;stop-opacity:1"/><stop id="stop3776-1" offset="1" style="stop-color:#fff;stop-opacity:0"/></linearGradient><radialGradient id="radialGradient3835" cx="63.135" cy="117.137" r="20.708" fx="63.135" fy="117.137" gradientTransform="matrix(0.97201783,-0.07410325,0.12651484,1.3906244,-13.052916,-41.078056)" gradientUnits="userSpaceOnUse" xlink:href="#linearGradient3772-7"/><linearGradient id="linearGradient3772-7-6"><stop id="stop3774-1-1" offset="0" style="stop-color:#fff;stop-opacity:1"/><stop id="stop3776-1-4" offset="1" style="stop-color:#fff;stop-opacity:0"/></linearGradient><radialGradient id="radialGradient3873" cx="63.135" cy="117.137" r="20.708" fx="63.135" fy="117.137" gradientTransform="matrix(0.97201783,-0.07410325,0.12651484,1.3906244,-13.052916,-41.078056)" gradientUnits="userSpaceOnUse" xlink:href="#linearGradient3772-7-6"/><linearGradient id="linearGradient3772-7-6-2"><stop id="stop3774-1-1-2" offset="0" style="stop-color:#fff;stop-opacity:1"/><stop id="stop3776-1-4-1" offset="1" style="stop-color:#fff;stop-opacity:0"/></linearGradient><radialGradient id="radialGradient3911" cx="63.135" cy="117.137" r="20.708" fx="63.135" fy="117.137" gradientTransform="matrix(0.97201783,-0.07410325,0.12651484,1.3906244,-13.052916,-41.078056)" gradientUnits="userSpaceOnUse" xlink:href="#linearGradient3772-7-6-2"/></defs><g id="layer1" transform="matrix(0.55,0,0,0.55,-22.003447,-119.95133)"><path id="path2816" d="m 697.14285,543.79077 a 257.14285,260 0 1 1 -514.2857,0 257.14285,260 0 1 1 514.2857,0 z" transform="matrix(0.87500001,0,0,0.86538462,11.428569,162.28526)" style="fill:#fd5;fill-opacity:1;stroke:none"/><path id="path2816-8" d="m 697.14285,543.79077 a 257.14285,260 0 1 1 -514.2857,0 257.14285,260 0 1 1 514.2857,0 z" transform="matrix(0.87500001,0,0,0.86538462,12.142856,162.99953)" style="fill:url(#radialGradient3794);fill-opacity:1;stroke:none"/><path id="path2816-8-1" d="m 697.14285,543.79077 a 257.14285,260 0 1 1 -514.2857,0 257.14285,260 0 1 1 514.2857,0 z" transform="matrix(0.87500001,0,0,0.86538462,9.2857037,164.4281)" style="fill:url(#radialGradient3848);fill-opacity:1;stroke:none"/><path id="path2818-1-4-4" d="m 397.14287,162.36218 a 58.57143,78.571426 0 1 1 -117.14286,0 58.57143,78.571426 0 1 1 117.14286,0 z" transform="matrix(1.1465953,0,0,1.1542778,58.17381,401.48181)" style="fill:url(#radialGradient3675);fill-opacity:1;stroke:none"/><path id="path2818-17-9" d="m 397.14287,162.36218 a 58.57143,78.571426 0 1 1 -117.14286,0 58.57143,78.571426 0 1 1 117.14286,0 z" transform="matrix(1.3568714,0,0,1.2259022,-133.31553,398.0924)" style="fill:url(#radialGradient3683);fill-opacity:1;stroke:none"/><path id="path2818" d="m 326.43303,509.28859 c -37.47647,0 -67.875,38.38006 -67.875,85.71875 0,47.33869 30.39853,85.71875 67.875,85.71875 30.82729,0 56.82893,-25.96934 65.09375,-61.53125 8.76859,28.56485 29.73027,48.6875 54.1875,48.6875 32.34811,0 58.5625,-35.19995 58.5625,-78.59375 0,-43.3938 -26.21439,-78.5625 -58.5625,-78.5625 -26.0225,0 -48.05543,22.78735 -55.6875,54.28125 -9.62871,-32.53898 -34.47488,-55.71875 -63.59375,-55.71875 z" style="fill:#f2f2f2;fill-opacity:1;stroke:none"/><path id="path2842" d="m 525.35525,772.15909 c 0,34.71505 -57.33496,62.85715 -128.06123,62.85715 -70.72627,0 -128.06125,-28.1421 -128.06125,-62.85715 0,-19.42388 -76.13613,-119.64714 -47.93434,-108.32012 22.24916,8.93619 96.5239,48.41604 175.99559,45.46298 85.75988,-3.18672 138.84773,-33.98827 163.76345,-42.41842 26.06753,-8.81986 -35.70222,88.9276 -35.70222,105.27556 z" style="fill:#a00;fill-opacity:1;stroke:none"/><path id="path2845-7" d="m 458.57141,453.79074 a 27.142857,32.857143 0 1 1 -54.28571,0 27.142857,32.857143 0 1 1 54.28571,0 z" transform="translate(-94.285696,139.79696)" style="fill:#000;fill-opacity:1;stroke:none"/><path id="rect2869" d="m 422.91628,447.89033 95.49871,29.66474 -5.93295,19.09974 -97.19384,-24.20767 7.62808,-24.55681 z" style="fill:#333;fill-opacity:1;stroke:none"/><path id="rect2869-4" d="m 362.29142,446.03611 -93.02312,36.6974 7.33948,18.60463 95.12012,-31.38179 -9.43648,-23.92024 z" style="fill:#333;fill-opacity:1;stroke:none"/><path id="path2842-0" d="m 512.88336,770.71735 c 0,27.79779 -50.9565,50.33235 -113.81453,50.33235 -62.85803,0 -113.81454,-22.53456 -113.81454,-50.33235 0,-15.55352 -67.66605,-95.80648 -42.60169,-86.73646 19.77396,7.15557 85.7857,38.76875 156.41623,36.40411 76.21916,-2.55174 123.40104,-27.21584 145.5449,-33.96621 23.16754,-7.06243 -31.73037,71.20806 -31.73037,84.29856 z" style="fill:#500;fill-opacity:1;stroke:none"/><path id="path2946" d="m 287.89348,754.87225 a 61.11423,48.992399 0 1 1 -122.22846,0 61.11423,48.992399 0 1 1 122.22846,0 z" transform="matrix(1.0556246,0,0,0.99042334,160.67913,23.981805)" style="opacity:.5;fill:red;fill-opacity:1;stroke:none"/><path id="path2916-8" d="m 256.56056,696.45876 c 1.80375,32.0643 64.01853,74.95536 138.67325,74.95536 74.08785,0 132.9486,-42.51201 135.62419,-74.23661 -25.34495,9.57987 -68.83035,27.43629 -133.2726,29.59375 -57.61995,1.92906 -112.14875,-18.74191 -141.02484,-30.3125 z" style="opacity:.2;fill:#1a1a1a;fill-opacity:1;stroke:none"/><path id="path2916" d="m 258.03376,690.06479 c 1.80375,32.0643 64.01853,74.95536 138.67325,74.95536 74.08785,0 132.9486,-42.51201 135.62419,-74.23661 -25.34495,9.57987 -68.83035,27.43629 -133.2726,29.59375 -57.61995,1.92906 -112.14875,-18.74191 -141.02484,-30.3125 z" style="fill:#e6e6e6;fill-opacity:1;stroke:none"/><path id="path2845-7-4" d="m 458.57141,453.79074 a 27.142857,32.857143 0 1 1 -54.28571,0 27.142857,32.857143 0 1 1 54.28571,0 z" transform="matrix(1.3260247,0,0,1.4147954,-125.91929,-50.924604)" style="fill:#000;fill-opacity:1;stroke:none"/><path id="path2818-17" d="m 397.14287,162.36218 a 58.57143,78.571426 0 1 1 -117.14286,0 58.57143,78.571426 0 1 1 117.14286,0 z" transform="matrix(1.1585366,0,0,1.0909091,-66.093226,417.91553)" style="fill:url(#radialGradient3699);fill-opacity:1;stroke:none"/><path id="path2818-1-4" d="m 397.14287,162.36218 a 58.57143,78.571426 0 1 1 -117.14286,0 58.57143,78.571426 0 1 1 117.14286,0 z" transform="translate(107.51709,426.8389)" style="fill:url(#radialGradient3691);fill-opacity:1;stroke:none"/><path id="path2916-82" d="m 258.58086,689.38769 c 7.86467,13.88155 64.52361,37.57972 139.17833,37.57972 74.08785,0 127.39276,-29.38003 135.11911,-36.86097 -25.34495,9.57987 -68.83035,27.43629 -133.2726,29.59375 -57.61995,1.92906 -112.14875,-18.74191 -141.02484,-30.3125 z" style="opacity:.2;fill:#333;fill-opacity:1;stroke:none"/><rect id="rect3745" width="4.643" height="19.643" x="391.071" y="745.373" style="opacity:.2;fill:#333;fill-opacity:1;stroke:none"/><rect id="rect3745-4" width="4.643" height="11.071" x="334.464" y="745.195" style="opacity:.2;fill:#333;fill-opacity:1;stroke:none"/><rect id="rect3745-4-5" width="4.643" height="20" x="446.25" y="739.481" style="opacity:.2;fill:#333;fill-opacity:1;stroke:none"/><rect id="rect3745-4-5-5" width="4.643" height="20" x="293.75" y="719.659" style="opacity:.2;fill:#333;fill-opacity:1;stroke:none"/><rect id="rect3745-4-1" width="4.643" height="11.071" x="483.75" y="733.052" style="opacity:.2;fill:#333;fill-opacity:1;stroke:none"/><rect id="rect3932" width="7.071" height="42.426" x="393.454" y="778.611" style="opacity:.75;fill:#782121;fill-opacity:1;stroke:none"/></g><g id="layer2" transform="matrix(0.55,0,0,0.55,-22.003447,128.84788)"><path id="path2891-48" d="m 171.03515,320.80322 c 0,0 -113.448468,-9.5279 -116.308179,-138.30323 C 51.949397,59.190993 171.03515,44.196775 171.03515,44.196775 c 0,0 0,276.606445 0,276.606445 z" style="fill:#ccc;fill-opacity:1;stroke:none"/><path id="path2891" d="m 168.09215,315.36477 c 0,0 -103.698362,-9.20805 -106.3123,-133.66038 -2.538861,-119.169503 106.3123,-133.660364 106.3123,-133.660364 0,0 0,267.320744 0,267.320744 z" style="fill:#000;fill-opacity:1;stroke:none"/><path id="rect3719-8" d="m 223.22849,-171.19641 c 87.35121,-34.33314 108.8508,79.939226 172.42623,81.390101 48.19665,1.099914 80.69362,-56.321181 133.41167,-55.674211 67.49376,0.84517 99.01667,183.400001 99.01667,183.400001 l -36.01957,4.285322 c 0,0 -22.49733,-129.307297 -69.81228,-142.932533 -43.3012,-12.46939 -84.02025,50.468232 -130.23528,47.988266 -54.35427,-2.916732 -94.95592,-84.007786 -146.21021,-72.505066 -51.75374,11.61479 -37.22907,161.680921 -37.22907,161.680921 l -38.63919,4.647735 c 0,0 6.58299,-193.922066 53.29103,-212.280536 z" style="fill:#ccc;fill-opacity:1;stroke:none"/><path id="rect3719" d="m 225.90886,-162.85712 c 85.81042,-33.07102 106.93078,77.00057 169.38481,78.398114 47.34651,1.059481 79.27027,-54.250754 131.05842,-53.627564 66.30324,0.8141 97.27012,176.658022 97.27012,176.658022 l -35.38422,4.127787 c 0,0 -22.1005,-124.553828 -68.58086,-137.678186 -42.53742,-12.011013 -82.53822,48.612968 -127.93807,46.224164 -53.39551,-2.809511 -93.28099,-80.919567 -143.63121,-69.839707 -50.84086,11.18782 -36.57239,155.737371 -36.57239,155.737371 l -37.95763,4.476879 c 0,0 6.46687,-186.79329 52.35103,-204.47688 z" style="fill:#000;fill-opacity:1;stroke:none"/><path id="rect2894-9" d="m 162.07893,36.479466 c 0,0 23.40559,-10.614226 36.23283,-10.364281 10.17166,0.198201 28.19406,9.327863 28.19406,9.327863 0,0 -26.13509,56.627058 -25.35507,139.365922 0.72103,76.48265 18.8569,149.76252 18.8569,149.76252 0,0 -14.9444,10.66312 -24.29518,11.40071 -11.81216,0.93174 -33.63354,-9.32785 -33.63354,-9.32785 0,0 -22.49867,-100.7486 -22.15222,-151.63455 0.31692,-46.55005 22.15222,-138.530334 22.15222,-138.530334 z" style="fill:#b3b3b3;fill-opacity:1;stroke:none"/><path id="path2891-1" d="m 166.3151,315.45721 c 0,0 -103.698364,-9.20805 -106.312294,-133.66038 C 57.463936,62.627337 166.3151,48.136477 166.3151,48.136477 c 0,0 0,267.320733 0,267.320733 z" style="fill:url(#radialGradient3708);fill-opacity:1;stroke:none"/><path id="rect2894" d="m 165.78705,40.861096 c 0,0 18.19218,-10.345137 28.16224,-10.101525 7.906,0.193178 21.91406,9.091372 21.91406,9.091372 0,0 -20.31371,55.19144 -19.70743,135.832717 0.56043,74.54366 14.65667,145.96573 14.65667,145.96573 0,0 -11.61565,10.39279 -18.88361,11.11168 -9.18109,0.90812 -26.14193,-9.09137 -26.14193,-9.09137 0,0 -17.48727,-98.1944 -17.21799,-147.7903 0.24634,-45.36991 17.21799,-135.018304 17.21799,-135.018304 z" style="fill:#000;fill-opacity:1;stroke:none"/><path id="path2891-48-5" d="m 629.55732,325.44608 c 0,0 113.44847,-9.5279 116.30818,-138.30323 C 748.64307,63.833846 629.55732,48.839636 629.55732,48.839636 c 0,0 0,276.606444 0,276.606444 z" style="fill:#ccc;fill-opacity:1;stroke:none"/><path id="path2891-5" d="m 632.50032,320.00763 c 0,0 103.69836,-9.20805 106.3123,-133.66038 2.53886,-119.169504 -106.3123,-133.660364 -106.3123,-133.660364 0,0 0,267.320744 0,267.320744 z" style="fill:#000;fill-opacity:1;stroke:none"/><path id="rect2894-9-1" d="m 638.51354,41.122326 c 0,0 -23.40559,-10.61423 -36.23283,-10.36428 -10.17166,0.1982 -28.19406,9.32786 -28.19406,9.32786 0,0 26.13509,56.62706 25.35507,139.365924 -0.72103,76.48265 -18.8569,149.76252 -18.8569,149.76252 0,0 14.9444,10.66312 24.29518,11.40071 11.81216,0.93174 33.63354,-9.32785 33.63354,-9.32785 0,0 22.49867,-100.7486 22.15222,-151.63455 C 660.34884,133.10261 638.51354,41.122326 638.51354,41.122326 z" style="fill:#b3b3b3;fill-opacity:1;stroke:none"/><path id="path2891-1-4" d="m 632.71557,319.49782 c 0,0 103.69836,-9.20805 106.31229,-133.66038 C 741.56673,66.667948 632.71557,52.177088 632.71557,52.177088 c 0,0 0,267.320732 0,267.320732 z" style="fill:url(#radialGradient3727);fill-opacity:1;stroke:none"/><path id="rect2894-7" d="m 634.80542,45.503956 c 0,0 -18.19218,-10.34514 -28.16224,-10.10153 -7.906,0.19318 -21.91406,9.09137 -21.91406,9.09137 0,0 20.31371,55.19144 19.70743,135.832724 -0.56043,74.54366 -14.65667,145.96573 -14.65667,145.96573 0,0 11.61565,10.39279 18.88361,11.11168 9.18109,0.90812 26.14193,-9.09137 26.14193,-9.09137 0,0 17.48727,-98.1944 17.21799,-147.7903 C 651.77707,135.15235 634.80542,45.503956 634.80542,45.503956 z" style="fill:#000;fill-opacity:1;stroke:none"/><path id="path3770" d="m 83.842661,117.13688 a 20.708128,27.274118 0 1 1 -41.416256,0 20.708128,27.274118 0 1 1 41.416256,0 z" transform="matrix(0.72907507,0.86451865,-1.254075,0.50260073,336.23415,-263.99741)" style="opacity:.75;fill:url(#radialGradient3778);fill-opacity:1;stroke:none"/><path id="path3770-5" d="m 83.842661,117.13688 a 20.708128,27.274118 0 1 1 -41.416256,0 20.708128,27.274118 0 1 1 41.416256,0 z" transform="matrix(0.72907507,0.86451865,-1.254075,0.50260073,604.93474,-239.75375)" style="opacity:.75;fill:url(#radialGradient3797);fill-opacity:1;stroke:none"/><path id="path3770-52" d="m 83.842661,117.13688 a 20.708128,27.274118 0 1 1 -41.416256,0 20.708128,27.274118 0 1 1 41.416256,0 z" transform="matrix(0.99452441,0.53839033,-0.98375892,0.92602916,165.5827,-53.600379)" style="opacity:.75;fill:url(#radialGradient3835);fill-opacity:1;stroke:none"/><path id="path3770-52-2" d="m 83.842661,117.13688 a 20.708128,27.274118 0 1 1 -41.416256,0 20.708128,27.274118 0 1 1 41.416256,0 z" transform="matrix(0.31431257,1.0710403,-1.1695931,0.00998494,727.85618,-19.458176)" style="opacity:.75;fill:url(#radialGradient3873);fill-opacity:1;stroke:none"/><path id="path3770-52-2-6" d="m 83.842661,117.13688 a 20.708128,27.274118 0 1 1 -41.416256,0 20.708128,27.274118 0 1 1 41.416256,0 z" transform="matrix(0.31431257,1.0710403,-1.1695931,0.00998494,307.06719,-26.393438)" style="opacity:.75;fill:url(#radialGradient3911);fill-opacity:1;stroke:none"/></g></svg>