<svg xmlns="http://www.w3.org/2000/svg" xmlns:svg="http://www.w3.org/2000/svg" id="svg2383" width="64" height="64" version="1.0"><g id="layer1" style="display:inline"><path id="path2454" d="M 13.627273,45.318215 L 3.2181818,45.269753 L 3.2181818,27.907604 L 3.2181818,10.545455 L 17.581818,10.545455 L 31.945455,10.545455 L 31.945455,28 L 31.945455,45.454545 L 27.990909,45.410611 C 25.815909,45.386445 19.352273,45.344865 13.627273,45.318211 L 13.627273,45.318215 z" style="fill:#afdde9;fill-opacity:1;stroke:#afdde9;stroke-width:.227;stroke-linecap:round;stroke-linejoin:round;stroke-miterlimit:4;stroke-dasharray:none;stroke-opacity:1"/><path id="path2456" d="M 33.127635,30.090909 L 33.127635,10.545818 L 47.309092,10.545818 L 61.490546,10.545818 L 61.490546,30.090909 L 61.490546,49.636001 L 47.309092,49.636001 L 33.127635,49.636001 L 33.127635,30.090909 z" style="fill:#37c8ab;fill-opacity:1;stroke:#37c8ab;stroke-width:.22745244;stroke-linecap:round;stroke-linejoin:round;stroke-miterlimit:4;stroke-dasharray:none;stroke-opacity:1"/><path id="path2458" d="M 3.2181818,47.970593 L 3.2181818,46.30482 L 9.2478545,46.425138 C 12.564182,46.491313 19.027818,46.545455 23.611491,46.545455 L 31.945455,46.545455 L 31.945455,48.090909 L 31.945455,49.636364 L 17.581818,49.636364 L 3.2181818,49.636364 L 3.2181818,47.970593 z" style="fill:#3771c8;fill-opacity:1;stroke:#3771c8;stroke-width:.227;stroke-linecap:round;stroke-linejoin:round;stroke-miterlimit:4;stroke-dasharray:none;stroke-opacity:1"/></g><g id="layer2" style="display:inline"><text id="text2415" x="9.455" y="49.273" xml:space="preserve" style="font-size:3.5px;font-style:normal;font-weight:400;writing-mode:lr-tb;fill:#000;fill-opacity:1;stroke:none;stroke-width:1px;stroke-linecap:butt;stroke-linejoin:miter;stroke-opacity:1;font-family:Bitstream Vera Sans"><tspan id="tspan2417" x="9.455" y="49.273">Chatbar</tspan></text><text id="text2419" x="-43.005" y="51.744" transform="matrix(0,-1,1,0,0,0)" xml:space="preserve" style="font-size:12px;font-style:normal;font-weight:400;fill:#000;fill-opacity:1;stroke:none;stroke-width:1px;stroke-linecap:butt;stroke-linejoin:miter;stroke-opacity:1;font-family:Bitstream Vera Sans"><tspan id="tspan2421" x="-43.005" y="51.744">Tree</tspan></text><rect id="rect2393" width="59.636" height="40.545" x="2.545" y="9.818" style="fill:none;fill-opacity:1;stroke:#000;stroke-width:1.24699998;stroke-linecap:round;stroke-linejoin:round;stroke-miterlimit:4;stroke-dasharray:none;stroke-opacity:1;display:inline"/><path id="path2403" d="M 32.545455,50.181818 L 32.545455,9.8181818" style="fill:none;fill-rule:evenodd;stroke:#000;stroke-width:1px;stroke-linecap:butt;stroke-linejoin:miter;stroke-opacity:1;display:inline"/><path id="path2405" d="M 2.5454545,45.818181 L 32.545455,46" style="fill:none;fill-rule:evenodd;stroke:#000;stroke-width:1px;stroke-linecap:butt;stroke-linejoin:miter;stroke-opacity:1;display:inline"/><text id="text3190" x="-37.823" y="20.562" transform="matrix(0,-1,1,0,0,0)" xml:space="preserve" style="font-size:12px;font-style:normal;font-weight:400;fill:#000;fill-opacity:1;stroke:none;stroke-width:1px;stroke-linecap:butt;stroke-linejoin:miter;stroke-opacity:1;display:inline;font-family:Bitstream Vera Sans"><tspan id="tspan3192" x="-37.823" y="20.562">Log</tspan></text></g></svg>