<svg xmlns="http://www.w3.org/2000/svg" xmlns:svg="http://www.w3.org/2000/svg" id="svg2383" width="64" height="64" version="1.0"><g id="layer1" style="display:inline"><path id="path2454" d="M 10.311618,49.523523 L 3.2039982,49.469181 L 3.2039982,30.000228 L 3.2039982,10.531271 L 13.011892,10.531271 L 22.819788,10.531271 L 22.819788,30.103834 L 22.819788,49.676396 L 20.119513,49.627131 C 18.634361,49.600033 14.220809,49.553406 10.311618,49.523519 L 10.311618,49.523523 z" style="fill:#afdde9;fill-opacity:1;stroke:#afdde9;stroke-width:.19863288;stroke-linecap:round;stroke-linejoin:round;stroke-miterlimit:4;stroke-dasharray:none;stroke-opacity:1"/><path id="path2456" d="M 42.875699,30.090909 L 42.875699,10.524329 L 52.193868,10.524329 L 61.512035,10.524329 L 61.512035,30.090909 L 61.512035,49.65749 L 52.193868,49.65749 L 42.875699,49.65749 L 42.875699,30.090909 z" style="fill:#37c8ab;fill-opacity:1;stroke:#37c8ab;stroke-width:.18447354;stroke-linecap:round;stroke-linejoin:round;stroke-miterlimit:4;stroke-dasharray:none;stroke-opacity:1"/><path id="path2458" d="M 23.214273,28.427425 L 23.253956,10.428519 L 42.543113,10.513879 L 42.543113,30.073514 L 42.543113,49.633148 L 23.214273,49.756489 L 23.214273,28.427425 z" style="fill:#3771c8;fill-opacity:1;stroke:#3771c8;stroke-width:.65668595;stroke-linecap:round;stroke-linejoin:round;stroke-miterlimit:4;stroke-dasharray:none;stroke-opacity:1"/></g><g id="layer2" style="display:inline"><rect id="rect2393" width="59.636" height="40.545" x="2.545" y="9.818" style="fill:none;fill-opacity:1;stroke:#000;stroke-width:1.24699998;stroke-linecap:round;stroke-linejoin:round;stroke-miterlimit:4;stroke-dasharray:none;stroke-opacity:1;display:inline"/></g><text id="text2393" x="9.697" y="34" xml:space="preserve" style="font-size:12px;font-style:normal;font-weight:400;fill:#000;fill-opacity:1;stroke:none;stroke-width:1px;stroke-linecap:butt;stroke-linejoin:miter;stroke-opacity:1;font-family:Bitstream Vera Sans"><tspan id="tspan2395" x="9.697" y="34">?</tspan></text><text id="text2397" x="30.338" y="34" xml:space="preserve" style="font-size:12px;font-style:normal;font-weight:400;fill:#000;fill-opacity:1;stroke:none;stroke-width:1px;stroke-linecap:butt;stroke-linejoin:miter;stroke-opacity:1;font-family:Bitstream Vera Sans"><tspan id="tspan2399" x="30.338" y="34">?</tspan></text><text id="text2401" x="50.009" y="34" xml:space="preserve" style="font-size:12px;font-style:normal;font-weight:400;fill:#000;fill-opacity:1;stroke:none;stroke-width:1px;stroke-linecap:butt;stroke-linejoin:miter;stroke-opacity:1;font-family:Bitstream Vera Sans"><tspan id="tspan2403" x="50.009" y="34">?</tspan></text></svg>