<svg xmlns="http://www.w3.org/2000/svg" xmlns:svg="http://www.w3.org/2000/svg" id="svg4960" width="64" height="64" version="1.0"><g id="layer1" style="display:inline"><path id="path5498" d="M 28.208135,35.863462 L 15.0257,35.8156 L 15.0257,19.726076 L 15.0257,3.6365615 L 33.362511,3.6365615 L 51.699324,3.6365615 L 51.699324,19.818182 L 51.699324,35.999802 L 46.544946,35.955558 C 43.710039,35.93123 35.458474,35.889783 28.208135,35.863459 L 28.208135,35.863462 z" style="fill:#37c8ab;fill-opacity:1;stroke:#37c8ab;stroke-width:.22712311;stroke-linecap:round;stroke-linejoin:round;stroke-miterlimit:4;stroke-dasharray:none;stroke-opacity:1"/><path id="path5500" d="M 28.096253,55.317961 L 14.993608,55.270078 L 14.993608,46.060117 L 14.993608,36.850145 L 22.69338,36.970648 C 26.928282,37.036924 35.187057,37.091149 41.046231,37.091149 L 51.699275,37.091149 L 51.699275,46.272724 L 51.699275,55.454298 L 46.449086,55.410065 C 43.561483,55.38574 35.302708,55.344291 28.096253,55.317957 L 28.096253,55.317961 z" style="fill:#afdde9;fill-opacity:1;stroke:#afdde9;stroke-width:.22722068;stroke-linecap:round;stroke-linejoin:round;stroke-miterlimit:4;stroke-dasharray:none;stroke-opacity:1"/><path id="path5502" d="M 15.034927,57.879505 L 15.034927,56.304654 L 22.559341,56.424891 C 26.697768,56.491019 34.947262,56.545235 40.891549,56.545366 L 51.699344,56.545606 L 51.699344,57.999986 L 51.699344,59.454367 L 33.367135,59.454367 L 15.034927,59.454367 L 15.034927,57.879505 z" style="fill:#3771c8;fill-opacity:1;stroke:#3771c8;stroke-width:.22708315;stroke-linecap:round;stroke-linejoin:round;stroke-miterlimit:4;stroke-dasharray:none;stroke-opacity:1"/></g><g id="layer4" style="display:inline"><text id="text5486" x="20.182" y="23.455" xml:space="preserve" style="font-size:12px;font-style:normal;font-weight:400;fill:#000;fill-opacity:1;stroke:none;stroke-width:1px;stroke-linecap:butt;stroke-linejoin:miter;stroke-opacity:1;font-family:Bitstream Vera Sans"><tspan id="tspan5488" x="20.182" y="23.455">Tree</tspan></text><text id="text5490" x="22.182" y="49.818" xml:space="preserve" style="font-size:12px;font-style:normal;font-weight:400;fill:#000;fill-opacity:1;stroke:none;stroke-width:1px;stroke-linecap:butt;stroke-linejoin:miter;stroke-opacity:1;font-family:Bitstream Vera Sans"><tspan id="tspan5492" x="22.182" y="49.818">Log</tspan></text><text id="text5494" x="25.636" y="59.091" xml:space="preserve" style="font-size:3.5px;font-style:normal;font-weight:400;fill:#000;fill-opacity:1;stroke:none;stroke-width:1px;stroke-linecap:butt;stroke-linejoin:miter;stroke-opacity:1;font-family:Bitstream Vera Sans"><tspan id="tspan5496" x="25.636" y="59.091">Chatbar</tspan></text><rect id="rect4970" width="38" height="57.273" x="14.364" y="2.909" style="fill:none;fill-opacity:1;stroke:#000;stroke-width:1.24699998;stroke-linecap:round;stroke-linejoin:round;stroke-miterlimit:4;stroke-dasharray:none;stroke-opacity:1;display:inline"/><path id="path5481" d="M 14.363636,36.363636 L 52.181818,36.545455" style="fill:none;fill-rule:evenodd;stroke:#000;stroke-width:1px;stroke-linecap:butt;stroke-linejoin:miter;stroke-opacity:1;display:inline"/><path id="path5483" d="M 14.181818,55.818181 L 52.181818,56" style="fill:none;fill-rule:evenodd;stroke:#000;stroke-width:1px;stroke-linecap:butt;stroke-linejoin:miter;stroke-opacity:1;display:inline"/></g></svg>