<svg xmlns="http://www.w3.org/2000/svg" xmlns:xlink="http://www.w3.org/1999/xlink" width="300" height="300" version="1.0"><defs><filter id="e" width="1" height="1" x="0" y="0" color-interpolation-filters="sRGB"><feGaussianBlur in="SourceAlpha" result="result1" stdDeviation="5"/><feComposite in2="result1" k1="-1" k2="3.2" k4="-2" operator="arithmetic" result="result3"/><feColorMatrix result="result2" values="1 0 0 0 0 0 1 0 0 0 0 0 1 0 0 0 0 0 10 0"/><feComposite in="SourceGraphic" in2="result2" operator="out" result="fbSourceGraphic"/><feGaussianBlur in="fbSourceGraphic" result="result4" stdDeviation=".01"/><feComposite in="fbSourceGraphic" in2="result4" operator="out" result="result5"/><feBlend in="result1" in2="result5" mode="multiply" result="result6"/><feBlend in="result4" in2="result6" mode="screen" result="fbSourceGraphic"/><feColorMatrix in="fbSourceGraphic" result="fbSourceGraphicAlpha" values="0 0 0 -1 0 0 0 0 -1 0 0 0 0 -1 0 0 0 0 1 0"/><feColorMatrix in="fbSourceGraphic" result="colormatrix1" values="0.299 0.587 0.114 0 0 0.299 0.587 0.114 0 0 0.299 0.587 0.114 0 0 0 0 0 1 0"/></filter><filter id="f" width="1" height="1" x="0" y="0" color-interpolation-filters="sRGB"><feColorMatrix result="colormatrix1" values="0.299 0.587 0.114 0 0 0.299 0.587 0.114 0 0 0.299 0.587 0.114 0 0 0 0 0 1 0"/></filter><filter id="g" width="1" height="1" x="0" y="0" color-interpolation-filters="sRGB"><feColorMatrix result="colormatrix1" values="0.299 0.587 0.114 0 0 0.299 0.587 0.114 0 0 0.299 0.587 0.114 0 0 0 0 0 1 0"/></filter><filter id="h" width="1" height="1" x="0" y="0" color-interpolation-filters="sRGB"><feColorMatrix result="colormatrix1" values="0.299 0.587 0.114 0 0 0.299 0.587 0.114 0 0 0.299 0.587 0.114 0 0 0 0 0 1 0"/></filter><filter id="i" width="1" height="1" x="0" y="0" color-interpolation-filters="sRGB"><feColorMatrix result="colormatrix1" values="0.299 0.587 0.114 0 0 0.299 0.587 0.114 0 0 0.299 0.587 0.114 0 0 0 0 0 1 0"/></filter><filter id="j" width="1" height="1" x="0" y="0" color-interpolation-filters="sRGB"><feColorMatrix result="colormatrix1" values="0.299 0.587 0.114 0 0 0.299 0.587 0.114 0 0 0.299 0.587 0.114 0 0 0 0 0 1 0"/></filter><filter id="k" width="1" height="1" x="0" y="0" color-interpolation-filters="sRGB"><feColorMatrix result="colormatrix1" values="0.299 0.587 0.114 0 0 0.299 0.587 0.114 0 0 0.299 0.587 0.114 0 0 0 0 0 1 0"/></filter><filter id="l" width="1" height="1" x="0" y="0" color-interpolation-filters="sRGB"><feColorMatrix result="colormatrix1" values="0.299 0.587 0.114 0 0 0.299 0.587 0.114 0 0 0.299 0.587 0.114 0 0 0 0 0 1 0"/></filter><filter id="n" width="1" height="1" x="0" y="0" color-interpolation-filters="sRGB"><feColorMatrix result="colormatrix1" values="0.299 0.587 0.114 0 0 0.299 0.587 0.114 0 0 0.299 0.587 0.114 0 0 0 0 0 1 0"/></filter><filter id="o" width="1" height="1" x="0" y="0" color-interpolation-filters="sRGB"><feColorMatrix result="colormatrix1" values="0.299 0.587 0.114 0 0 0.299 0.587 0.114 0 0 0.299 0.587 0.114 0 0 0 0 0 1 0"/></filter><filter id="p" width="1" height="1" x="0" y="0" color-interpolation-filters="sRGB"><feColorMatrix result="colormatrix1" values="0.299 0.587 0.114 0 0 0.299 0.587 0.114 0 0 0.299 0.587 0.114 0 0 0 0 0 1 0"/></filter><filter id="r" width="1" height="1" x="0" y="0" color-interpolation-filters="sRGB"><feColorMatrix result="colormatrix1" values="0.299 0.587 0.114 0 0 0.299 0.587 0.114 0 0 0.299 0.587 0.114 0 0 0 0 0 1 0"/></filter><filter id="t" width="1" height="1" x="0" y="0" color-interpolation-filters="sRGB"><feColorMatrix result="colormatrix1" values="0.299 0.587 0.114 0 0 0.299 0.587 0.114 0 0 0.299 0.587 0.114 0 0 0 0 0 1 0"/></filter><filter id="v" width="1" height="1" x="0" y="0" color-interpolation-filters="sRGB"><feColorMatrix result="colormatrix1" values="0.299 0.587 0.114 0 0 0.299 0.587 0.114 0 0 0.299 0.587 0.114 0 0 0 0 0 1 0"/></filter><filter id="x" width="1" height="1" x="0" y="0" color-interpolation-filters="sRGB"><feColorMatrix result="colormatrix1" values="0.299 0.587 0.114 0 0 0.299 0.587 0.114 0 0 0.299 0.587 0.114 0 0 0 0 0 1 0"/></filter><filter id="z" width="1" height="1" x="0" y="0" color-interpolation-filters="sRGB"><feColorMatrix result="colormatrix1" values="0.299 0.587 0.114 0 0 0.299 0.587 0.114 0 0 0.299 0.587 0.114 0 0 0 0 0 1 0"/></filter><filter id="B" width="1" height="1" x="0" y="0" color-interpolation-filters="sRGB"><feColorMatrix result="colormatrix1" values="0.299 0.587 0.114 0 0 0.299 0.587 0.114 0 0 0.299 0.587 0.114 0 0 0 0 0 1 0"/></filter><filter id="D" width="1" height="1" x="0" y="0" color-interpolation-filters="sRGB"><feColorMatrix result="colormatrix1" values="0.299 0.587 0.114 0 0 0.299 0.587 0.114 0 0 0.299 0.587 0.114 0 0 0 0 0 1 0"/></filter><radialGradient id="C" cx="77.72" cy="253.965" r="44.733" fx="77.72" fy="253.965" gradientTransform="matrix(1 0 0 .26721 0 176.356)" gradientUnits="userSpaceOnUse" xlink:href="#b"/><radialGradient id="w" cx="79.442" cy="268.725" r="44.733" fx="79.442" fy="268.725" gradientTransform="matrix(1 0 0 .26721 -.377 175.793)" gradientUnits="userSpaceOnUse" xlink:href="#b"/><radialGradient id="y" cx="77.178" cy="240.664" r="43.983" fx="77.178" fy="240.664" gradientTransform="matrix(1 0 0 .25472 0 179.363)" gradientUnits="userSpaceOnUse" xlink:href="#c"/><radialGradient id="A" cx="77.178" cy="240.664" r="44.733" fx="77.178" fy="240.664" gradientTransform="matrix(1 0 0 .26721 0 176.356)" gradientUnits="userSpaceOnUse" xlink:href="#c"/><radialGradient id="u" cx="77.178" cy="240.664" r="44.733" fx="77.178" fy="240.664" gradientTransform="matrix(1 0 0 .26721 0 176.356)" gradientUnits="userSpaceOnUse" xlink:href="#c"/><radialGradient id="s" cx="77.178" cy="240.664" r="44.733" fx="77.178" fy="240.664" gradientTransform="matrix(1 0 0 .26721 0 176.356)" gradientUnits="userSpaceOnUse" xlink:href="#c"/><radialGradient id="m" cx="77.915" cy="206.04" r="44.733" fx="77.915" fy="206.04" gradientTransform="matrix(.8489 0 0 .26721 10.645 184.451)" gradientUnits="userSpaceOnUse" xlink:href="#d"/><linearGradient id="d"><stop offset="0"/><stop offset="1" stop-opacity="0"/></linearGradient><linearGradient id="a"><stop offset="0" stop-color="#be0000"/><stop offset="1" stop-color="#ff0f0f" stop-opacity="0"/></linearGradient><linearGradient id="b"><stop offset="0" stop-color="#501616"/><stop offset="1" stop-color="#501616" stop-opacity="0"/></linearGradient><linearGradient id="c"><stop offset="0" stop-color="#df9393"/><stop offset="1" stop-color="#e29898" stop-opacity="0"/></linearGradient><linearGradient id="q" x1="311.182" x2="31.19" y1="93.563" y2="86.509" gradientTransform="translate(-22.223 53.74)" gradientUnits="userSpaceOnUse" xlink:href="#a"/></defs><g transform="translate(-22.223 53.74)"><path fill="#1a1a1a" fill-rule="evenodd" d="M240.664 129.876a103.942 44.813 0 01-103.942 44.813A103.942 44.813 0 0132.78 129.876a103.942 44.813 0 01103.942-44.814 103.942 44.813 0 01103.942 44.814z" filter="url(#e)" transform="matrix(1.28772 0 0 1.33616 -1.335 -85.475)"/><path fill="#fff" fill-rule="evenodd" d="M123.237 107.365a55.81 9.025 0 01-55.81 9.025 55.81 9.025 0 01-55.809-9.025 55.81 9.025 0 0155.81-9.025 55.81 9.025 0 0155.809 9.025z" filter="url(#f)" transform="matrix(1.84628 0 0 3.24528 46.812 -286.96)"/><rect width="39.043" height="40.286" x="168.934" y="55.128" fill="#ffe6d5" fill-rule="evenodd" stroke="#916f6f" stroke-width="1.402" filter="url(#g)" opacity=".6" ry="4.515" transform="matrix(.9996 -.02815 .02172 .99976 0 0)"/><rect width="39.043" height="40.286" x="-173.608" y="46.002" fill="#ffe6d5" fill-rule="evenodd" stroke="#916f6f" stroke-width="1.402" filter="url(#h)" opacity=".6" ry="4.515" transform="matrix(-.9996 -.02815 -.02172 .99976 0 0)"/><rect width="31.143" height="39.915" x="203.64" y="67.94" fill="#ffe6d5" fill-rule="evenodd" stroke="#916f6f" stroke-width="1.246" filter="url(#i)" opacity=".6" ry="4.473" transform="matrix(.99556 -.09412 .06318 .998 0 0)"/><rect width="27.979" height="39.71" x="227.082" y="102.48" fill="#ffe6d5" fill-rule="evenodd" stroke="#916f6f" stroke-width="1.178" filter="url(#j)" opacity=".6" ry="4.45" transform="matrix(.96591 -.25886 .15165 .98843 0 0)"/><rect width="31.143" height="39.915" x="-138.396" y="34.902" fill="#ffe6d5" fill-rule="evenodd" stroke="#916f6f" stroke-width="1.246" filter="url(#k)" opacity=".6" ry="4.473" transform="matrix(-.99556 -.09412 -.06318 .998 0 0)"/><rect width="27.979" height="39.71" x="-113.004" y="13.94" fill="#ffe6d5" fill-rule="evenodd" stroke="#916f6f" stroke-width="1.178" filter="url(#l)" opacity=".6" ry="4.45" transform="matrix(-.96591 -.25886 -.15165 .98843 0 0)"/><path fill="url(#m)" fill-rule="evenodd" d="M121.162 240.664a43.983 11.203 0 01-43.984 11.203 43.983 11.203 0 01-43.983-11.203 43.983 11.203 0 0143.983-11.203 43.983 11.203 0 0143.984 11.203z" filter="url(#n)" opacity=".76" transform="matrix(2.65343 0 0 1.07637 -29.66 -201.164)"/><path fill="#ff3737" fill-rule="evenodd" d="M72.328 26.623c-28.332 15.884-42.23 46.881-42.23 60.23 0 24.809 20.688 46.749 45.446 71.546 17.728 17.755 30.813 23.287 59.452 27.766 14.695 2.299 52.035 1.913 62.7.94 39.64-3.581 51.274-8.702 69.197-24.773 25.868-23.197 48.346-49.985 48.346-75.48.444-4.776-10.545-43.139-43.146-59.067C247.686 15.861 213.86.277 196.552 2.671c-20.71 2.865-28.507 2.606-48.985-.234C127.366.309 90.606 16.044 72.328 26.623zM192.141 58.54c7.21-1.088 16.275-3.706 30.448-2.745 1.059.072 26.823 3.835 36.465 7.094 33.602 11.356 44.575 19.482 44.17 21.439 0 10.443-10.152 14.195-32.24 25.611-8.899 4.6-25.752 14.169-44.244 13.898-20.938-.306-41.19 2.959-39.796 3.744-14.53 2.795-13.154 3.194-25.408.379-5.35-1.997-18.921-5.294-45.873-3.689-10.761.64-22.42-4.344-40.477-16.32C52.43 92.86 45.456 96.83 45.456 86.667c0-5.468 12.34-15.425 37.743-23.012 6.451-1.927 33.629-7.44 33.869-7.077 14.97-1.803 27.65 1.132 35.166 1.91 15.42 2.359 24.957 2.146 39.907.053z" filter="url(#o)"/><path d="M129.308 82.987l13.394-6.982" filter="url(#p)"/></g><path fill="url(#q)" fill-rule="evenodd" d="M49.86 80.56C21.529 96.443 7.63 127.44 7.63 140.79c0 24.809 20.689 46.748 45.447 71.545 17.728 17.756 30.812 23.288 59.451 27.767 14.695 2.299 52.036 1.913 62.7.94 39.641-3.581 51.274-8.702 69.197-24.774 25.869-23.196 48.346-49.985 48.346-75.478.444-4.777-10.545-43.14-43.146-59.068-24.406-11.924-58.231-27.508-75.54-25.114-20.711 2.865-28.507 2.606-48.985-.234-20.202-2.128-56.962 13.606-75.24 24.185zm119.814 31.917c7.209-1.088 16.274-3.706 30.448-2.744 1.058.071 26.822 3.835 36.465 7.094 33.601 11.356 44.575 19.482 44.17 21.438 0 10.444-10.152 14.196-32.24 25.612-8.9 4.6-25.752 14.169-44.245 13.898-20.938-.306-41.19 2.958-39.796 3.744-14.53 2.794-13.153 3.194-25.407.378-5.35-1.996-18.922-5.293-45.874-3.688-10.76.64-22.42-4.344-40.476-16.32-22.758-15.093-29.731-11.122-29.731-21.285 0-5.468 12.341-15.426 37.744-23.013 6.45-1.926 33.629-7.439 33.869-7.076 14.969-1.803 27.65 1.132 35.166 1.91 15.42 2.358 24.957 2.146 39.907.052z" filter="url(#r)" opacity=".85"/></svg>