<svg xmlns="http://www.w3.org/2000/svg" xmlns:svg="http://www.w3.org/2000/svg" xmlns:xlink="http://www.w3.org/1999/xlink" id="svg1307" width="48" height="48"><defs id="defs1309"><linearGradient id="linearGradient3837"><stop style="stop-color:#000;stop-opacity:1" id="stop3839" offset="0"/><stop style="stop-color:#fff;stop-opacity:.78350514" id="stop3841" offset="1"/></linearGradient><linearGradient id="linearGradient2257"><stop style="stop-color:#ef2929" id="stop2259" offset="0"/><stop style="stop-color:#c00" id="stop2261" offset="1"/></linearGradient><linearGradient id="linearGradient3340"><stop style="stop-color:#fff;stop-opacity:1" id="stop3342" offset="0"/><stop style="stop-color:#fff;stop-opacity:0" id="stop3344" offset="1"/></linearGradient><linearGradient id="linearGradient8662"><stop style="stop-color:#000;stop-opacity:1" id="stop8664" offset="0"/><stop style="stop-color:#000;stop-opacity:0" id="stop8666" offset="1"/></linearGradient><radialGradient id="radialGradient2228" cx="24.837" cy="36.421" r="15.645" fx="24.837" fy="36.421" gradientTransform="matrix(1,0,0,0.536723,-3.241652e-13,16.87306)" gradientUnits="userSpaceOnUse" xlink:href="#linearGradient8662"/><radialGradient id="radialGradient1368" cx="21.929" cy="-3.218" r="13" fx="21.929" fy="-3.218" gradientTransform="matrix(3.658819,-3.13388e-16,1.719536e-16,2.080782,-62.4164,12.76204)" gradientUnits="userSpaceOnUse" xlink:href="#linearGradient3340"/><radialGradient id="radialGradient2263" cx="22.5" cy="28.116" r="14.538" fx="22.5" fy="28.116" gradientTransform="matrix(2.365562,-4.942242e-16,5.359766e-16,2.202845,-30.72517,-34.23996)" gradientUnits="userSpaceOnUse" xlink:href="#linearGradient2257"/><linearGradient id="linearGradient3843" x1="21.702" x2="21.816" y1="8.912" y2="35.546" gradientUnits="userSpaceOnUse" xlink:href="#linearGradient3837"/><radialGradient id="radialGradient3845" cx="22.5" cy="28.116" r="14.538" fx="22.5" fy="28.116" gradientTransform="matrix(2.365562,-4.942242e-16,5.359766e-16,2.202845,-30.72517,-34.23996)" gradientUnits="userSpaceOnUse" xlink:href="#linearGradient2257"/></defs><metadata id="metadata1312"/><g id="layer1" style="display:inline"><path id="path3835" d="M 36.5 22 A 14 13 0 1 1 8.5,22 A 14 13 0 1 1 36.5 22 z" transform="matrix(0.920697,0,0,0.99358,3.679484,1.641236)" style="opacity:.15;color:#000;fill:url(#radialGradient3845);fill-opacity:1;fill-rule:evenodd;stroke:url(#linearGradient3843);stroke-width:3.13661647;stroke-linecap:square;stroke-linejoin:round;marker:none;marker-start:none;marker-mid:none;marker-end:none;stroke-miterlimit:4;stroke-dasharray:none;stroke-dashoffset:0;stroke-opacity:1;visibility:visible;display:inline;overflow:visible"/><path style="opacity:.03999999;color:#000;fill:url(#radialGradient2228);fill-opacity:1;fill-rule:evenodd;stroke:none;stroke-width:1;stroke-linecap:butt;stroke-linejoin:miter;marker:none;marker-start:none;marker-mid:none;marker-end:none;stroke-miterlimit:10;stroke-dasharray:none;stroke-dashoffset:0;stroke-opacity:1;visibility:visible;display:inline;overflow:visible" id="path2226" d="M 40.481863 36.421127 A 15.644737 8.3968935 0 1 1 9.1923885,36.421127 A 15.644737 8.3968935 0 1 1 40.481863 36.421127 z" transform="matrix(1.150533,0,0,0.565685,-4.5765,16.55285)"/><path style="color:#000;fill:url(#radialGradient2263);fill-opacity:1;fill-rule:evenodd;stroke:#c00;stroke-width:1.0757246;stroke-linecap:square;stroke-linejoin:round;marker:none;marker-start:none;marker-mid:none;marker-end:none;stroke-miterlimit:4;stroke-dasharray:none;stroke-dashoffset:0;stroke-opacity:1;visibility:visible;display:inline;overflow:visible" id="path2525" d="M 36.5 22 A 14 13 0 1 1 8.5,22 A 14 13 0 1 1 36.5 22 z" transform="matrix(0.894862,0,0,0.9657,3.855776,2.660348)"/><path style="color:#000;fill:none;fill-opacity:1;fill-rule:evenodd;stroke:#f77d7d;stroke-width:1.21739173;stroke-linecap:square;stroke-linejoin:round;marker:none;marker-start:none;marker-mid:none;marker-end:none;stroke-miterlimit:4;stroke-dasharray:none;stroke-dashoffset:0;stroke-opacity:1;visibility:visible;display:inline;overflow:visible" id="path2527" d="M 38 24 A 14 14 0 1 1 10,24 A 14 14 0 1 1 38 24 z" transform="matrix(0.821429,0,0,0.821429,4.285117,4.191455)"/><path style="opacity:.6;fill:url(#radialGradient1368);fill-opacity:1;fill-rule:evenodd;stroke:none;stroke-width:.25pt;stroke-linecap:butt;stroke-linejoin:miter;stroke-opacity:1;display:inline" id="path2529" d="M 23.84315,11.90574 C 17.563618,11.985335 12.438727,16.897799 12.03065,23.09324 C 18.148473,25.61002 25.90107,21.642017 35.172655,19.711354 C 34.484245,16.962785 30.617935,11.90574 23.9994,11.90574 C 23.947693,11.90574 23.894703,11.905087 23.84315,11.90574 z"/></g></svg>